<?xml version="1.0" encoding="utf-8"?>
<!-- Generator: Adobe Illustrator 15.1.0, SVG Export Plug-In . SVG Version: 6.00 Build 0)  -->
<!DOCTYPE svg PUBLIC "-//W3C//DTD SVG 1.1//EN" "http://www.w3.org/Graphics/SVG/1.1/DTD/svg11.dtd">
<svg version="1.1" xmlns="http://www.w3.org/2000/svg" xmlns:xlink="http://www.w3.org/1999/xlink" x="0px" y="0px" width="600px"
	 height="600px" viewBox="0 0 600 600" enable-background="new 0 0 600 600" xml:space="preserve">
<g id="BG">
	<circle fill="#333333" cx="300" cy="300" r="239.88"/>
	<path display="none" fill="#222222" d="M537.396,334.533l-183.84-183.84h-16.704v284.301h-182.09l100.751,100.751
		c14.418,2.704,29.285,4.135,44.488,4.135C420.754,539.88,520.651,450.65,537.396,334.533z"/>
	<path display="none" fill="#222222" d="M321.28,327.547h22.798L239.601,223.07h-98.523l0.022,0.007l-3.073,3.081
		c-6.462,1.573-11.265,7.382-11.265,14.329c0,4.048,1.632,7.714,4.271,10.381h-3.521l104.477,104.477h117.09L321.28,327.547z"/>
	<path display="none" fill="#222222" d="M539.88,300c0-15.733-1.532-31.107-4.423-45.995l-32.672-32.671H356.078L467.4,332.656
		h70.258C539.112,321.977,539.88,311.079,539.88,300z"/>
</g>
<g id="container">
	<rect x="266.852" y="149.725" fill="#B3D1E1" width="70" height="150"/>
	<path fill="#B3D1E1" d="M301.852,245.655c0,0-145.736,122.152-145.736,188.043c0,13.807,65.249,25,145.736,25
		c80.488,0,145.736-11.193,145.736-25C447.588,367.808,301.852,245.655,301.852,245.655z"/>
	<ellipse fill="#B3D1E1" cx="301.852" cy="433.698" rx="145.736" ry="25"/>
	<path fill="#B3D1E1" d="M353.79,153.868c0,6.627,0,12-12,12h-79.876c-12,0-12-5.373-12-12v-6.232c0-6.627,0-12,12-12h79.876
		c12,0,12,5.373,12,12V153.868z"/>
</g>
<g id="liquid">
	<g>
		<path fill="#8EA8B2" d="M341.852,143.249c0,2.168-17.907,3.927-40,3.927c-22.091,0-40-1.758-40-3.927c0-2.169,0-3.927,40-3.927
			S341.852,141.08,341.852,143.249z"/>
	</g>
	<path fill="#49B5E7" d="M301.852,261.843c0,0-118.992,99.736-118.992,153.535c0,11.274,53.275,20.413,118.992,20.413
		c65.719,0,118.992-9.139,118.992-20.413C420.844,361.579,301.852,261.843,301.852,261.843z"/>
	<rect x="276.852" y="175.867" fill="#49B5E7" width="50" height="150.002"/>
	<ellipse fill="#3584A0" cx="301.852" cy="175.868" rx="25" ry="3.466"/>
	<ellipse fill="#40A6C1" cx="301.848" cy="417.684" rx="118.996" ry="18.107"/>
</g>
<g id="bubbles">
	<g>
		<path fill="#A0DDF6" d="M284.467,362.816c0-6.352,5.149-14,11.5-14c6.352,0,13.25,3.148,13.25,9.5s-6.898,13.5-13.25,13.5
			C289.616,371.816,284.467,369.168,284.467,362.816z"/>
		<path fill="#CDECF9" d="M297.209,358.643c0-2.228,1.806-4.911,4.033-4.911c2.229,0,4.648,1.104,4.648,3.332
			c0,2.229-2.42,4.735-4.648,4.735C299.015,361.799,297.209,360.87,297.209,358.643z"/>
	</g>
	<g>
		<path fill="#A0DDF6" d="M274.401,300.834c0-4.345,2.29-6.636,6.634-6.636c4.345,0,9.064,4.856,9.064,9.201
			s-4.719,6.532-9.064,6.532C276.691,309.932,274.401,305.179,274.401,300.834z"/>
		<path fill="#CDECF9" d="M282.25,298.927c0-1.116,0.588-1.704,1.704-1.704s2.328,1.247,2.328,2.362
			c0,1.116-1.212,1.678-2.328,1.678S282.25,300.042,282.25,298.927z"/>
	</g>
	<g>
		<path fill="#A0DDF6" d="M287.679,282.791c-2.357-1.908-2.596-4.157-0.688-6.514c1.91-2.357,6.618-2.784,8.975-0.876
			c2.357,1.909,1.471,5.431-0.438,7.788C293.62,285.546,290.034,284.699,287.679,282.791z"/>
		<path fill="#CDECF9" d="M292.904,279.28c-0.57-0.462-0.628-1.006-0.166-1.576c0.462-0.571,1.602-0.675,2.172-0.213
			c0.571,0.463,0.356,1.315-0.106,1.886S293.474,279.742,292.904,279.28z"/>
	</g>
	<path fill="#A0DDF6" d="M269.485,336.077c0.856-2.909,2.841-3.993,5.75-3.137c2.91,0.858,5.112,5.041,4.256,7.95
		c-0.857,2.909-4.449,3.443-7.359,2.587C269.223,342.621,268.627,338.984,269.485,336.077z"/>
	<path fill="#A0DDF6" d="M291.796,325.061c-1.039-0.841-1.144-1.832-0.303-2.871c0.842-1.038,2.917-1.227,3.955-0.386
		c1.039,0.842,0.648,2.394-0.193,3.433C294.414,326.274,292.834,325.901,291.796,325.061z"/>
	<path fill="#A0DDF6" d="M296.571,264.67c-1.039-0.841-1.144-1.832-0.303-2.871c0.842-1.038,2.917-1.227,3.955-0.386
		c1.038,0.842,0.648,2.394-0.193,3.433C299.189,265.884,297.609,265.511,296.571,264.67z"/>
</g>
<g id="shinies">
	<circle fill="#FFFFFF" cx="313.278" cy="193.417" r="2.703"/>
	<path fill="#FFFFFF" d="M313,200.009c-3.125,0-2.656,3.472-2.75,7.086l-0.051,68.348c-0.074,6.107-20.949,9.232,1.967,9.232
		c2.112,0,3.824-1.712,3.824-3.824v-77.018C315.99,201.722,315.112,200.009,313,200.009z"/>
	<path fill="#FFFFFF" d="M319.852,296.176c16.815,8.5,84.148,86.167,82.648,112.522c-0.364,6.407-11.646,13.633-15.167,0
		C370.332,342.865,303.036,287.676,319.852,296.176z"/>
</g>
<g id="BIG_TEXT" display="none">
	<rect x="178.425" y="323.61" display="inline" fill="none" width="332.187" height="92.833"/>
	
		<text transform="matrix(1 0 0 1 178.4248 398.1895)" display="inline" fill="#3584A0" font-family="'phantom-bold'" font-size="110">SAUCE</text>
	<rect x="94.266" y="229.005" display="inline" fill="none" width="270.917" height="92.833"/>
	<text transform="matrix(1 0 0 1 94.2661 303.584)" display="inline" fill="#3584A0" font-family="'phantom-bold'" font-size="110">code</text>
	<rect x="88.933" y="223.204" display="inline" fill="none" width="270.918" height="92.833"/>
	
		<text transform="matrix(1 0 0 1 88.9326 297.7827)" display="inline" fill="#FFFFFF" font-family="'phantom-bold'" font-size="110">code</text>
	<rect x="173.091" y="317.809" display="inline" fill="none" width="332.186" height="92.833"/>
	
		<text transform="matrix(1 0 0 1 173.0913 392.3867)" display="inline" fill="#FFFFFF" font-family="'phantom-bold'" font-size="110">SAUCE</text>
</g>
<g id="lil_text">
	<rect x="105.13" y="223.204" fill="none" width="135.459" height="38.639"/>
	<text transform="matrix(1 0 0 1 122.7407 257.4536)" fill="#FFFFFF" font-family="'phantom'" font-size="50">code</text>
	<rect x="356.078" y="222.447" fill="none" width="154.178" height="39.396"/>
	<text transform="matrix(1 0 0 1 356.0781 256.6973)" fill="#FFFFFF" font-family="'phantom'" font-size="50">SAUCE</text>
</g>
<g id="Layer_7">
	<circle fill="none" stroke="#9DDCF9" stroke-width="10" stroke-miterlimit="10" cx="300" cy="300" r="260"/>
	<circle fill="none" stroke="#49B5E7" stroke-width="2" stroke-miterlimit="10" cx="300" cy="300" r="260"/>
	<ellipse fill="#49B5E7" cx="525.48" cy="172.402" rx="25.5" ry="25.518"/>
	<g>
		<circle fill="#222222" cx="525.48" cy="172.402" r="22.695"/>
		<g>
			<polygon fill="#49B5E7" points="531.496,158.329 515.262,172.994 528.281,175.44 			"/>
			<polygon fill="#49B5E7" points="519.465,186.476 535.699,171.811 522.682,169.364 			"/>
		</g>
	</g>
</g>
</svg>
